<svg width="580" height="400" xmlns="http://www.w3.org/2000/svg">
 <!-- Created with Method Draw - http://github.com/duopixel/Method-Draw/ -->
 <defs>
  <filter height="200%" width="200%" y="-50%" x="-50%" id="svg_1_blur">
   <feGaussianBlur stdDeviation="0" in="SourceGraphic"/>
  </filter>
  <filter height="200%" width="200%" y="-50%" x="-50%" id="svg_3_blur">
   <feGaussianBlur stdDeviation="0.3" in="SourceGraphic"/>
  </filter>
 </defs>
 <g>
  <title>background</title>
 <g display="none" overflow="visible" y="0" x="0" height="100%" width="100%" id="canvasGrid">
  </g>
 </g>
 <g>
  <title>Layer 1</title>
  <rect rx="200" stroke="#000" id="svg_2" height="233" width="233" y="83.5" x="173.5" stroke-opacity="null" stroke-width="5" fill="#000000"/>
  <path filter="url(#svg_3_blur)" id="svg_3" d="m352.50309,197.40124c-6.092834,-1.069776 -12.434251,-1.774133 -17.583482,-1.964786l-0.908091,-0.031776c0.207998,-0.476633 0.365266,-0.799684 0.415997,-0.847347c0.111609,-0.095327 0.202925,-0.497816 0.213072,-0.889715c0,-0.217133 0.091316,-0.92149 0.233364,-1.853572c1.395112,0.052959 3.246806,0.095327 5.265913,0.111214c7.797407,0.063551 15.955006,0.720245 21.550673,1.752949c3.333049,0.614327 4.433919,0.593143 1.973449,-0.031776c-2.490909,-0.630214 -9.877392,-1.557 -15.762227,-1.95949c-3.951971,-0.280684 -9.618662,-0.386602 -12.956784,-0.328347c0.09639,-0.603735 0.207998,-1.276317 0.324681,-1.964786c0.471801,-2.663848 0.629069,-5.343583 0.639215,-10.676574c0.010146,-8.272227 -0.415997,-10.549472 -2.998222,-16.020158c-1.050139,-2.234878 -2.237252,-4.130817 -3.672949,-5.846696c1.253064,-3.860726 1.222625,-9.839819 -0.076097,-15.08278c-1.070431,-4.300287 -1.445843,-4.575675 -5.17967,-3.749511c-3.165636,0.704357 -5.702203,1.662919 -8.954081,3.373501c-1.53716,0.810276 -3.65773,2.070705 -5.194889,3.061042c-4.007776,-1.472266 -8.152526,-2.446715 -12.576299,-2.971011c-4.48465,-0.529592 -15.478132,-0.23302 -19.379372,0.519c-3.814997,0.736133 -7.249508,1.636439 -10.35934,2.706215c-1.552379,-1.000929 -3.80485,-2.351388 -5.413034,-3.198736c-3.267098,-1.715878 -5.803665,-2.669144 -8.979447,-3.373501c-3.72368,-0.831459 -4.109238,-0.550776 -5.174597,3.749511c-1.319015,5.311808 -1.329161,11.391524 -0.025366,15.241657c0.152194,0.439561 0.24351,0.752021 0.279022,0.995633c-5.286206,6.948247 -7.011071,14.722657 -5.864543,25.573997c0.299315,2.828021 0.76097,5.423022 1.405258,7.80089c-3.373634,-0.021184 -8.172819,0.105918 -11.637769,0.338939c-5.894982,0.407786 -13.281465,1.32398 -15.772373,1.954194c-2.455397,0.624919 -1.364673,0.646102 1.973449,0.037071c5.595667,-1.027408 13.758339,-1.694694 21.550673,-1.752949c1.471209,-0.005296 2.846028,-0.037071 4.028068,-0.068847c0.355119,1.255133 0.76097,2.452011 1.222625,3.590634l-0.035512,0.005296c-5.149231,0.185357 -11.485575,0.889715 -17.578409,1.95949c-4.570894,0.799684 -11.318162,2.399052 -12.104498,2.859797c-0.826921,0.481929 -0.152194,0.37601 3.388853,-0.561368c6.4581,-1.705286 14.854136,-3.013378 25.254061,-3.924277l1.161748,-0.105918c2.232179,5.41243 5.671764,9.543248 10.531826,12.763167c2.972856,1.975378 7.736529,4.003715 10.136122,4.321471c0.659507,0.084735 2.577152,0.497816 4.261433,0.910898c1.689354,0.413082 4.991964,1.032704 7.335752,1.387531l0.055804,0c-0.045658,0.031776 -0.086243,0.052959 -0.126828,0.084735c-2.840955,1.541113 -4.687576,3.940164 -5.930494,7.716155c-0.558045,0.174765 -1.253064,0.413082 -2.003888,0.683174c-2.683688,0.953266 -3.728753,1.149215 -6.447953,1.170398c-2.820662,0.021184 -3.490316,-0.105918 -5.174597,-0.932082c-2.450324,-1.191582 -4.733234,-3.384093 -6.255174,-6.000277c-2.54164,-4.37443 -6.934974,-7.467247 -10.597777,-7.467247c-3.130124,0 -3.72368,1.32398 -1.461063,3.256991c3.409146,2.90746 5.955859,5.873175 7.000925,8.139829c0.588484,1.271021 1.491501,3.235807 2.014034,4.363838c0.552972,1.202174 1.735012,2.833317 2.861248,3.961348c2.648176,2.637368 5.205035,3.897797 9.020032,4.49094c2.55686,0.391898 3.185928,0.391898 6.204443,-0.010592c1.455989,-0.185357 2.683688,-0.40249 3.784558,-0.672582c0,1.292204 0,2.780358 0,4.528011c0,9.352594 -0.106536,12.360677 -0.461655,13.2398c-0.669654,1.673511 -2.171301,3.394685 -3.632364,4.167889c-1.455989,0.773204 -1.907498,1.625847 -1.293649,2.409644c0.3399,0.423674 0.994334,0.497816 3.191001,0.349531c4.170116,-0.270092 7.117607,-1.880052 8.619255,-4.718665c0.481948,-0.910898 0.593557,-2.743286 0.745751,-12.275942c0.16234,-10.342931 0.233364,-11.338564 0.877652,-12.816126c0.390631,-0.879123 0.953749,-1.832388 1.268283,-2.091888c0.527606,-0.455449 0.563118,0.444857 0.563118,12.816126c-0.005073,13.652881 -0.136975,15.299912 -1.445843,17.926689c-0.294242,0.598439 -0.852287,1.376939 -1.242918,1.747654c-0.684873,0.651398 -0.974042,2.319613 -0.497167,2.822725c0.786336,0.815572 4.728161,-0.466041 6.87917,-2.234878c3.662803,-3.029266 4.099092,-5.534236 4.129531,-23.625098l0.015219,-10.613023l1.111016,0.111214l1.111016,0.105918l0.182633,13.880606c0.207998,15.628259 0.238437,15.855984 2.785151,18.874658c1.445843,1.705286 2.901833,2.64796 5.270986,3.384093c3.170709,0.995633 4.124458,-0.540184 1.993742,-3.204032c-2.318422,-2.896868 -2.430031,-4.003715 -2.303203,-21.151904c0.086243,-10.99433 0.086243,-10.99433 0.766043,-10.353523c1.430624,1.355755 1.704573,3.580042 1.704573,13.891198c0,12.805534 0.350046,14.023596 4.682503,16.258474c2.02418,1.032704 2.592371,1.159806 5.184743,1.170398c2.759785,0.010592 2.927198,-0.031776 3.028661,-0.783796c0.086243,-0.609031 -0.253657,-1.022113 -1.542233,-1.84298c-1.689354,-1.085664 -2.861248,-2.473195 -3.596852,-4.220848c-0.279022,-0.672582 -0.466728,-5.078787 -0.593557,-14.150698c-0.182633,-12.673136 -0.223218,-13.250391 -0.979115,-15.236361c-1.0197,-2.669144 -2.577152,-4.77692 -4.550601,-6.175043c-0.512387,-0.349531 -1.024773,-0.640806 -1.689354,-0.857939c0.816775,-0.084735 1.608183,-0.174765 2.374227,-0.291276c7.974967,-1.106847 12.190741,-2.028337 15.574521,-3.394685c7.158192,-2.875684 11.997962,-7.652604 14.620772,-14.426086c0.233364,-0.603735 0.466728,-1.175694 0.664581,-1.636439l2.019107,0.174765c10.404998,0.916194 18.801034,2.224286 25.259134,3.934868c3.541047,0.937378 4.215774,1.048592 3.388853,0.556072c-0.771116,-0.450153 -7.518385,-2.044225 -12.084205,-2.843909zm-30.509828,-0.164174c-1.18204,2.711511 -4.479577,6.196226 -7.142973,7.562574c-2.627883,1.355755 -6.747268,2.38846 -11.414551,2.88098c-3.191001,0.338939 -20.987555,0.439561 -23.9249,0.137694c-9.725198,-0.995633 -15.173744,-2.949827 -19.191666,-6.863512c-3.80485,-3.717736 -5.580447,-8.764747 -5.270986,-14.976861c0.197852,-3.887205 1.095797,-6.328624 3.444658,-9.294339c2.135789,-2.700919 4.383188,-4.369134 7.031364,-5.216481c2.21696,-0.709653 9.020032,-0.773204 18.166893,-0.158878c4.043288,0.270092 7.386483,0.270092 11.424698,0c9.567931,-0.630214 15.955006,-0.561368 18.314014,0.201245c3.708461,1.196878 7.087168,4.416797 9.116422,8.706492c0.913164,1.917123 1.090724,2.732695 1.222625,5.693114c0.182633,4.077858 -0.492094,8.409921 -1.775597,11.327973zm-48.245504,-17.508311c-5.443473,-0.995633 -8.553304,8.732972 -4.378115,13.700545c1.983595,2.356684 3.743973,2.743286 5.945713,1.313388c2.0394,-1.329276 3.145343,-3.813062 3.145343,-7.032982c0,-4.294991 -1.871986,-7.451359 -4.712941,-7.980951zm33.041321,0.582551c-5.443473,-0.995633 -8.558377,8.72238 -4.383188,13.695249c1.988669,2.356684 3.743973,2.748582 5.950786,1.308092c2.034327,-1.32398 3.145343,-3.813062 3.145343,-7.032982c0,-4.279103 -1.871986,-7.446063 -4.712941,-7.970359zm-14.641065,19.128862c-0.116682,0.391898 -0.684873,0.974449 -1.258137,1.286909c-1.450916,0.7785 -2.495982,0.508408 -4.028068,-0.94797c-0.948676,-0.89501 -1.379892,-1.366347 -1.669061,-0.42897c-0.268876,0.868531 1.420478,2.610888 2.724273,3.145776c1.19726,0.497816 2.054619,0.513704 3.353342,-0.052959c1.288576,-0.561368 2.414812,-2.070705 2.414812,-3.05045c0,-0.910898 -1.253064,-0.868531 -1.53716,0.047663zm-1.608183,-3.045154c0.826921,-0.762612 1.014627,-2.330205 0.223218,-3.161664s-2.399592,-0.704357 -3.028661,0.227725c-0.730531,1.090959 -0.3399,1.922419 0.182633,2.806838c0.811701,0.656694 1.902425,0.789092 2.62281,0.127102z" fill-opacity="null" stroke-opacity="null" stroke="#000" fill="#fff"/>
 </g>
</svg>
